<svg width="240" height="60" viewBox="0 0 240 60" fill="none" xmlns="http://www.w3.org/2000/svg">
<rect x="7.5" y="12.5" width="35" height="35" stroke="#83468C" stroke-width="15"/>
<path d="M58 60L58 0" stroke="#83468C" stroke-width="2"/>
<path d="M65.724 52C65.5533 52 65.404 51.9413 65.276 51.824C65.1587 51.696 65.1 51.5467 65.1 51.376V40.128C65.1 39.9467 65.1587 39.7973 65.276 39.68C65.404 39.5627 65.5533 39.504 65.724 39.504C65.98 39.504 66.1667 39.6107 66.284 39.824L71.676 50.544H71.132L76.428 39.824C76.556 39.6107 76.7427 39.504 76.988 39.504C77.1587 39.504 77.3027 39.5627 77.42 39.68C77.5373 39.7973 77.596 39.9467 77.596 40.128V51.376C77.596 51.5467 77.5373 51.696 77.42 51.824C77.3027 51.9413 77.1587 52 76.988 52C76.8067 52 76.652 51.9413 76.524 51.824C76.4067 51.696 76.348 51.5467 76.348 51.376V41.744L76.62 41.76L71.9 51.408C71.7827 51.6107 71.6013 51.712 71.356 51.712C71.0893 51.712 70.8973 51.584 70.78 51.328L66.028 41.824L66.348 41.744V51.376C66.348 51.5467 66.284 51.696 66.156 51.824C66.0387 51.9413 65.8947 52 65.724 52ZM95.1551 52C94.9098 52 94.7338 51.8987 94.6271 51.696C94.5205 51.4933 94.5098 51.296 94.5951 51.104L99.2991 39.936C99.4165 39.648 99.6191 39.504 99.9071 39.504C100.184 39.504 100.382 39.648 100.499 39.936L105.219 51.12C105.315 51.3227 105.299 51.52 105.171 51.712C105.054 51.904 104.883 52 104.659 52C104.531 52 104.414 51.968 104.307 51.904C104.211 51.84 104.131 51.744 104.067 51.616L99.6671 40.944H100.163L95.7311 51.616C95.6778 51.744 95.5978 51.84 95.4911 51.904C95.3951 51.968 95.2831 52 95.1551 52ZM96.2111 49.024L96.6911 47.952H103.187L103.667 49.024H96.2111ZM122.757 52C122.576 52 122.426 51.9413 122.309 51.824C122.192 51.7067 122.133 51.5573 122.133 51.376V40.128C122.133 39.9467 122.192 39.7973 122.309 39.68C122.426 39.5627 122.576 39.504 122.757 39.504C122.949 39.504 123.109 39.5787 123.237 39.728L130.885 49.776V40.128C130.885 39.9467 130.944 39.7973 131.061 39.68C131.178 39.5627 131.328 39.504 131.509 39.504C131.68 39.504 131.824 39.5627 131.941 39.68C132.069 39.7973 132.133 39.9467 132.133 40.128V51.376C132.133 51.5573 132.069 51.7067 131.941 51.824C131.824 51.9413 131.68 52 131.509 52C131.424 52 131.338 51.984 131.253 51.952C131.168 51.92 131.098 51.8667 131.045 51.792L123.381 41.744V51.376C123.381 51.5573 123.317 51.7067 123.189 51.824C123.072 51.9413 122.928 52 122.757 52ZM149.688 52C149.443 52 149.267 51.8987 149.16 51.696C149.054 51.4933 149.043 51.296 149.128 51.104L153.832 39.936C153.95 39.648 154.152 39.504 154.44 39.504C154.718 39.504 154.915 39.648 155.032 39.936L159.752 51.12C159.848 51.3227 159.832 51.52 159.704 51.712C159.587 51.904 159.416 52 159.192 52C159.064 52 158.947 51.968 158.84 51.904C158.744 51.84 158.664 51.744 158.6 51.616L154.2 40.944H154.696L150.264 51.616C150.211 51.744 150.131 51.84 150.024 51.904C149.928 51.968 149.816 52 149.688 52ZM150.744 49.024L151.224 47.952H157.72L158.2 49.024H150.744ZM181.97 52.16C181.106 52.16 180.295 51.9947 179.538 51.664C178.791 51.3333 178.13 50.8747 177.554 50.288C176.988 49.6907 176.546 49.008 176.226 48.24C175.906 47.4613 175.746 46.6293 175.746 45.744C175.746 44.8693 175.9 44.048 176.21 43.28C176.53 42.5013 176.972 41.8187 177.538 41.232C178.114 40.6453 178.775 40.1867 179.522 39.856C180.279 39.5147 181.095 39.344 181.97 39.344C182.738 39.344 183.436 39.456 184.066 39.68C184.695 39.904 185.303 40.2613 185.89 40.752C185.986 40.8267 186.039 40.9173 186.05 41.024C186.071 41.12 186.06 41.216 186.018 41.312C185.975 41.3973 185.911 41.4613 185.826 41.504C185.804 41.5893 185.751 41.6533 185.666 41.696C185.58 41.7387 185.479 41.7547 185.362 41.744C185.255 41.7333 185.148 41.6853 185.042 41.6C184.626 41.2373 184.172 40.9707 183.682 40.8C183.191 40.6187 182.62 40.528 181.97 40.528C181.276 40.528 180.626 40.6667 180.018 40.944C179.42 41.2213 178.892 41.6 178.434 42.08C177.975 42.56 177.612 43.1147 177.346 43.744C177.09 44.3733 176.962 45.04 176.962 45.744C176.962 46.4693 177.09 47.1467 177.346 47.776C177.612 48.4053 177.975 48.96 178.434 49.44C178.892 49.92 179.42 50.2987 180.018 50.576C180.626 50.8427 181.276 50.976 181.97 50.976C182.556 50.976 183.111 50.88 183.634 50.688C184.156 50.496 184.652 50.2187 185.122 49.856C185.25 49.7493 185.383 49.7067 185.522 49.728C185.671 49.7493 185.799 49.8133 185.906 49.92C186.012 50.0267 186.066 50.1653 186.066 50.336C186.066 50.4213 186.055 50.5013 186.034 50.576C186.012 50.64 185.964 50.7093 185.89 50.784C185.346 51.2853 184.738 51.6427 184.066 51.856C183.394 52.0587 182.695 52.16 181.97 52.16ZM186.066 50.336L184.85 50.08V46.864H182.354C182.172 46.864 182.023 46.8107 181.906 46.704C181.788 46.5973 181.73 46.464 181.73 46.304C181.73 46.144 181.788 46.016 181.906 45.92C182.023 45.8133 182.172 45.76 182.354 45.76H185.442C185.623 45.76 185.772 45.8187 185.89 45.936C186.007 46.0427 186.066 46.1867 186.066 46.368V50.336ZM204.299 52C204.118 52 203.968 51.9413 203.851 51.824C203.734 51.7067 203.675 51.5573 203.675 51.376V40.128C203.675 39.9467 203.734 39.7973 203.851 39.68C203.968 39.5627 204.118 39.504 204.299 39.504H211.803C211.974 39.504 212.118 39.5627 212.235 39.68C212.363 39.7867 212.427 39.9307 212.427 40.112C212.427 40.272 212.363 40.4107 212.235 40.528C212.118 40.6453 211.974 40.704 211.803 40.704H204.923V45.12H209.931C210.112 45.12 210.262 45.1787 210.379 45.296C210.496 45.4133 210.555 45.5573 210.555 45.728C210.555 45.8987 210.496 46.0427 210.379 46.16C210.262 46.2773 210.112 46.336 209.931 46.336H204.923V50.8H211.803C211.974 50.8 212.118 50.8587 212.235 50.976C212.363 51.0933 212.427 51.232 212.427 51.392C212.427 51.5733 212.363 51.7227 212.235 51.84C212.118 51.9467 211.974 52 211.803 52H204.299ZM230.417 52C230.236 52 230.086 51.9413 229.969 51.824C229.852 51.7067 229.793 51.5573 229.793 51.376V40.128C229.793 39.9467 229.852 39.7973 229.969 39.68C230.086 39.5627 230.236 39.504 230.417 39.504H233.409C234.188 39.504 234.881 39.6693 235.489 40C236.097 40.32 236.572 40.7733 236.913 41.36C237.265 41.936 237.441 42.6027 237.441 43.36C237.441 44.0853 237.265 44.7307 236.913 45.296C236.572 45.8613 236.097 46.304 235.489 46.624C234.881 46.944 234.188 47.104 233.409 47.104H231.041V51.376C231.041 51.5573 230.982 51.7067 230.865 51.824C230.748 51.9413 230.598 52 230.417 52ZM237.105 52C236.966 52 236.854 51.9733 236.769 51.92C236.694 51.8667 236.625 51.7867 236.561 51.68L233.489 46.784L234.737 46.464L237.601 51.04C237.761 51.296 237.788 51.52 237.681 51.712C237.585 51.904 237.393 52 237.105 52ZM231.041 45.904H233.409C233.953 45.904 234.433 45.7973 234.849 45.584C235.276 45.36 235.612 45.056 235.857 44.672C236.102 44.288 236.225 43.8507 236.225 43.36C236.225 42.8373 236.102 42.3787 235.857 41.984C235.612 41.5787 235.276 41.264 234.849 41.04C234.433 40.816 233.953 40.704 233.409 40.704H231.041V45.904Z" fill="#83468C"/>
<path d="M66.7279 36C66.1999 36 65.7559 35.82 65.3959 35.46C65.0359 35.1 64.8559 34.656 64.8559 34.128V9.756C64.8559 9.204 65.0359 8.76 65.3959 8.424C65.7559 8.064 66.1999 7.884 66.7279 7.884H82.9999C83.5519 7.884 83.9959 8.052 84.3319 8.388C84.6679 8.7 84.8359 9.12 84.8359 9.648C84.8359 10.152 84.6679 10.56 84.3319 10.872C83.9959 11.184 83.5519 11.34 82.9999 11.34H68.5999V20.088H78.9319C79.4839 20.088 79.9279 20.256 80.2639 20.592C80.5999 20.904 80.7679 21.312 80.7679 21.816C80.7679 22.32 80.5999 22.74 80.2639 23.076C79.9279 23.388 79.4839 23.544 78.9319 23.544H68.5999V32.544H82.9999C83.5519 32.544 83.9959 32.7 84.3319 33.012C84.6679 33.324 84.8359 33.732 84.8359 34.236C84.8359 34.764 84.6679 35.196 84.3319 35.532C83.9959 35.844 83.5519 36 82.9999 36H66.7279ZM89.9549 36C89.4029 36 88.9829 35.832 88.6949 35.496C88.4069 35.136 88.2629 34.728 88.2629 34.272C88.2629 33.792 88.4069 33.36 88.6949 32.976L97.7669 20.88L99.3869 19.44L107.667 8.424C108.003 8.064 108.447 7.884 108.999 7.884C109.503 7.884 109.899 8.04 110.187 8.352C110.475 8.664 110.631 9.048 110.655 9.504C110.679 9.96 110.547 10.404 110.259 10.836L101.511 22.5L99.9629 23.868L91.2509 35.46C90.8909 35.82 90.4589 36 89.9549 36ZM108.783 36C108.471 36 108.195 35.952 107.955 35.856C107.739 35.736 107.535 35.556 107.343 35.316L98.9549 23.688L97.6229 22.572L89.1629 10.836C88.8749 10.452 88.7549 10.032 88.8029 9.576C88.8509 9.12 89.0189 8.724 89.3069 8.388C89.6189 8.052 90.0269 7.884 90.5309 7.884C91.1549 7.884 91.5989 8.064 91.8629 8.424L99.8549 19.512L101.223 20.628L110.115 32.976C110.403 33.36 110.535 33.792 110.511 34.272C110.487 34.752 110.319 35.16 110.007 35.496C109.719 35.832 109.311 36 108.783 36ZM117.704 36C117.176 36 116.732 35.82 116.372 35.46C116.012 35.1 115.832 34.656 115.832 34.128V9.756C115.832 9.204 116.012 8.76 116.372 8.424C116.732 8.064 117.176 7.884 117.704 7.884H124.904C126.704 7.884 128.3 8.28 129.692 9.072C131.084 9.864 132.164 10.968 132.932 12.384C133.724 13.776 134.12 15.384 134.12 17.208C134.12 18.96 133.724 20.52 132.932 21.888C132.164 23.256 131.084 24.324 129.692 25.092C128.3 25.86 126.704 26.244 124.904 26.244H119.576V34.128C119.576 34.656 119.396 35.1 119.036 35.46C118.7 35.82 118.256 36 117.704 36ZM119.576 22.788H124.904C126.008 22.788 126.98 22.548 127.82 22.068C128.66 21.588 129.32 20.928 129.8 20.088C130.28 19.248 130.52 18.288 130.52 17.208C130.52 16.056 130.28 15.048 129.8 14.184C129.32 13.296 128.66 12.6 127.82 12.096C126.98 11.592 126.008 11.34 124.904 11.34H119.576V22.788ZM140.134 36C139.606 36 139.162 35.82 138.802 35.46C138.442 35.1 138.262 34.656 138.262 34.128V9.756C138.262 9.204 138.442 8.76 138.802 8.424C139.162 8.064 139.606 7.884 140.134 7.884H156.406C156.958 7.884 157.402 8.052 157.738 8.388C158.074 8.7 158.242 9.12 158.242 9.648C158.242 10.152 158.074 10.56 157.738 10.872C157.402 11.184 156.958 11.34 156.406 11.34H142.006V20.088H152.338C152.89 20.088 153.334 20.256 153.67 20.592C154.006 20.904 154.174 21.312 154.174 21.816C154.174 22.32 154.006 22.74 153.67 23.076C153.334 23.388 152.89 23.544 152.338 23.544H142.006V32.544H156.406C156.958 32.544 157.402 32.7 157.738 33.012C158.074 33.324 158.242 33.732 158.242 34.236C158.242 34.764 158.074 35.196 157.738 35.532C157.402 35.844 156.958 36 156.406 36H140.134ZM165.305 36C164.777 36 164.333 35.82 163.973 35.46C163.637 35.1 163.469 34.656 163.469 34.128V9.756C163.469 9.204 163.637 8.76 163.973 8.424C164.333 8.064 164.777 7.884 165.305 7.884C165.881 7.884 166.361 8.112 166.745 8.568L182.441 29.448V9.756C182.441 9.204 182.621 8.76 182.981 8.424C183.341 8.064 183.785 7.884 184.313 7.884C184.865 7.884 185.309 8.064 185.645 8.424C185.981 8.76 186.149 9.204 186.149 9.756V34.128C186.149 34.656 185.981 35.1 185.645 35.46C185.309 35.82 184.865 36 184.313 36C184.073 36 183.809 35.952 183.521 35.856C183.257 35.736 183.041 35.568 182.873 35.352L167.177 14.472V34.128C167.177 34.656 166.997 35.1 166.637 35.46C166.301 35.82 165.857 36 165.305 36ZM202.28 36.36C200.744 36.36 199.28 36.12 197.888 35.64C196.496 35.16 195.284 34.488 194.252 33.624C193.22 32.76 192.464 31.764 191.984 30.636C191.744 30.132 191.744 29.664 191.984 29.232C192.248 28.8 192.68 28.524 193.28 28.404C193.712 28.308 194.132 28.38 194.54 28.62C194.972 28.836 195.296 29.172 195.512 29.628C195.8 30.228 196.268 30.78 196.916 31.284C197.588 31.788 198.392 32.196 199.328 32.508C200.264 32.82 201.248 32.976 202.28 32.976C203.432 32.976 204.488 32.796 205.448 32.436C206.432 32.076 207.224 31.56 207.824 30.888C208.424 30.192 208.724 29.34 208.724 28.332C208.724 27.06 208.22 25.92 207.212 24.912C206.228 23.904 204.596 23.28 202.316 23.04C199.34 22.752 197 21.876 195.296 20.412C193.592 18.948 192.74 17.136 192.74 14.976C192.74 13.392 193.184 12.048 194.072 10.944C194.96 9.84 196.16 9 197.672 8.424C199.208 7.848 200.912 7.56 202.784 7.56C204.248 7.56 205.52 7.764 206.6 8.172C207.704 8.58 208.664 9.144 209.48 9.864C210.296 10.584 211.004 11.436 211.604 12.42C211.94 12.948 212.072 13.452 212 13.932C211.952 14.388 211.724 14.748 211.316 15.012C210.86 15.3 210.368 15.36 209.84 15.192C209.312 15.024 208.916 14.712 208.652 14.256C208.268 13.56 207.8 12.972 207.248 12.492C206.696 12.012 206.048 11.64 205.304 11.376C204.56 11.088 203.684 10.944 202.676 10.944C200.9 10.92 199.412 11.256 198.212 11.952C197.012 12.624 196.412 13.668 196.412 15.084C196.412 15.804 196.592 16.5 196.952 17.172C197.336 17.82 198.02 18.384 199.004 18.864C200.012 19.344 201.452 19.68 203.324 19.872C206.18 20.16 208.4 21.036 209.984 22.5C211.592 23.94 212.396 25.848 212.396 28.224C212.396 29.592 212.108 30.78 211.532 31.788C210.98 32.796 210.224 33.648 209.264 34.344C208.328 35.016 207.248 35.52 206.024 35.856C204.824 36.192 203.576 36.36 202.28 36.36ZM220.009 36C219.481 36 219.037 35.82 218.677 35.46C218.317 35.1 218.137 34.656 218.137 34.128V9.756C218.137 9.204 218.317 8.76 218.677 8.424C219.037 8.064 219.481 7.884 220.009 7.884H236.281C236.833 7.884 237.277 8.052 237.613 8.388C237.949 8.7 238.117 9.12 238.117 9.648C238.117 10.152 237.949 10.56 237.613 10.872C237.277 11.184 236.833 11.34 236.281 11.34H221.881V20.088H232.213C232.765 20.088 233.209 20.256 233.545 20.592C233.881 20.904 234.049 21.312 234.049 21.816C234.049 22.32 233.881 22.74 233.545 23.076C233.209 23.388 232.765 23.544 232.213 23.544H221.881V32.544H236.281C236.833 32.544 237.277 32.7 237.613 33.012C237.949 33.324 238.117 33.732 238.117 34.236C238.117 34.764 237.949 35.196 237.613 35.532C237.277 35.844 236.833 36 236.281 36H220.009Z" fill="#83468C"/>
</svg>
